<?xml version="1.0" encoding="utf-8"?>
<!-- Generator: Adobe Illustrator 16.0.0, SVG Export Plug-In . SVG Version: 6.00 Build 0)  -->
<!DOCTYPE svg PUBLIC "-//W3C//DTD SVG 1.1//EN" "http://www.w3.org/Graphics/SVG/1.1/DTD/svg11.dtd">
<svg version="1.1" xmlns="http://www.w3.org/2000/svg" xmlns:xlink="http://www.w3.org/1999/xlink" x="0px" y="0px" width="300px"
	 height="300px" viewBox="0 0 300 300" enable-background="new 0 0 300 300" xml:space="preserve">
<g id="Capa_1">
	<path fill="#303C42" d="M150,0C81.079,0,25,56.073,25,125v168.75c0,3.455,2.796,6.25,6.25,6.25c12.939,0,19.47-8.246,24.719-14.868
		c5.127-6.47,8.35-10.132,14.917-10.132c6.567,0,9.79,3.662,14.929,10.132C91.064,291.754,97.607,300,110.535,300
		c12.916,0,19.446-8.246,24.683-14.868c5.127-6.47,8.337-10.132,14.893-10.132c6.543,0,9.753,3.656,14.868,10.125
		c5.248,6.629,11.779,14.875,24.694,14.875s19.435-8.246,24.67-14.868c5.128-6.47,8.337-10.132,14.894-10.132
		c6.531,0,9.74,3.656,14.844,10.119c5.236,6.629,11.755,14.881,24.67,14.881c3.455,0,6.25-2.795,6.25-6.25V125
		C275,56.073,218.921,0,150,0z"/>
	<rect x="65.167" y="76.75" fill="#FFFFFF" width="170.849" height="106.5"/>

		<linearGradient id="SVGID_1_" gradientUnits="userSpaceOnUse" x1="-19.3125" y1="598.4316" x2="3.1774" y2="587.9443" gradientTransform="matrix(12.5 0 0 -12.5 260.2891 7590.0625)">
		<stop  offset="0" style="stop-color:#FFFFFF;stop-opacity:0.2"/>
		<stop  offset="1" style="stop-color:#FFFFFF;stop-opacity:0"/>
	</linearGradient>
	<path fill="url(#SVGID_1_)" d="M150-0.757c-68.921,0-125,56.073-125,125v168.75c0,3.455,2.796,6.25,6.25,6.25
		c12.939,0,19.471-8.246,24.719-14.868c5.127-6.47,8.35-10.132,14.918-10.132c6.566,0,9.789,3.662,14.928,10.132
		c5.25,6.622,11.793,14.868,24.721,14.868c12.916,0,19.445-8.246,24.683-14.868c5.128-6.47,8.337-10.132,14.894-10.132
		c6.543,0,9.753,3.656,14.867,10.125c5.248,6.629,11.779,14.875,24.694,14.875s19.435-8.246,24.67-14.868
		c5.128-6.47,8.337-10.132,14.894-10.132c6.531,0,9.74,3.656,14.844,10.119c5.236,6.629,11.755,14.881,24.67,14.881
		c3.455,0,6.25-2.795,6.25-6.25v-168.75C275,55.316,218.921-0.757,150-0.757z"/>
	<circle fill="#303C42" cx="117.536" cy="136.744" r="18.5">
		<animateTransform
			attributeName="transform"
      type="translate"
      from="0 0"
      to="-30 0"
      dur="1.5s"
      repeatCount="indefinite"
      calcMode="spline"
      flip="Infinity"
      keySplines="0.3 0 0.2 1; 0.3 0 0.2 1"
      values="0; -30; 0"
		  />
	</circle>
	<circle fill="#303C42" cx="219.035" cy="136.744" r="18.5">
		<animateTransform
			attributeName="transform"
      type="translate"
      from="0 0"
      to="-30 0"
      dur="1.5s"
      repeatCount="indefinite"
      calcMode="spline"
      flip="Infinity"
      keySplines="0.3 0 0.2 1; 0.3 0 0.2 1"
      values="0; -30; 0"
		  />
	</circle>

	<path fill="#5AC6D9" d="M262.5,285.229c-2.979-1.644-5.42-4.584-8.605-8.612c-5.236-6.628-11.756-14.874-24.658-14.874
		c-12.916,0-19.445,8.246-24.693,14.874c-5.115,6.47-8.326,10.126-14.869,10.126c-6.555,0-9.766-3.662-14.895-10.133
		c-5.234-6.621-11.754-14.867-24.668-14.867c-12.916,0-19.445,8.246-24.684,14.868c-5.127,6.47-8.336,10.132-14.893,10.132
		c-6.566,0-9.79-3.662-14.929-10.132c-5.248-6.622-11.791-14.868-24.719-14.868s-19.457,8.24-24.707,14.861
		c-3.211,4.054-5.677,7.002-8.68,8.644V124.243c0-62.03,50.463-112.5,112.5-112.5c62.037,0,112.5,50.47,112.5,112.5V285.229
		L262.5,285.229z M124.285,108.278c0-12.722-10.312-23.036-23.035-23.036l0,0c-12.723,0-23.035,10.313-23.035,23.036v39.93
		c0,12.721,10.312,23.035,23.035,23.035l0,0c12.722,0,23.035-10.314,23.035-23.035V108.278z M221.07,108.278
		c0-12.722-10.312-23.036-23.035-23.036l0,0c-12.723,0-23.035,10.313-23.035,23.036v39.93c0,12.721,10.312,23.035,23.035,23.035l0,0
		c12.723,0,23.035-10.314,23.035-23.035V108.278z"/>
	<path opacity="0.2" fill="#FFFFFF" enable-background="new" d="M37.5,125v161.004c3.003-1.643,5.469-4.59,8.68-8.643
		c2.75-3.471,5.881-7.355,10.071-10.295V137.784C56.25,68.705,98.304,12.5,150,12.5C87.964,12.5,37.5,62.97,37.5,125z"/>
	<path opacity="0.1" enable-background="new    " d="M150,12.5c51.697,0,93.75,56.205,93.75,125.284V267.01
		c4.227,2.949,7.381,6.867,10.145,10.365c3.187,4.027,5.627,6.971,8.605,8.611V125C262.5,62.97,212.036,12.5,150,12.5z"/>
	<path fill="none" stroke="#303C42" stroke-width="12" stroke-miterlimit="10" d="M125.536,106.869
		c0-14.103-11.433-25.536-25.536-25.536l0,0c-14.103,0-25.535,11.433-25.535,25.536v44.263c0,14.101,11.433,25.535,25.535,25.535
		l0,0c14.104,0,25.536-11.435,25.536-25.535V106.869z"/>
	<path fill="none" stroke="#303C42" stroke-width="12" stroke-miterlimit="10" d="M225.071,106.869
		c0-14.103-11.433-25.536-25.536-25.536l0,0c-14.103,0-25.535,11.433-25.535,25.536v44.263c0,14.101,11.433,25.535,25.535,25.535
		l0,0c14.104,0,25.536-11.435,25.536-25.535V106.869z"/>
</g>
<g id="Layer_2">
</g>
</svg>
