<?xml version="1.0" encoding="utf-8"?>
<!-- Generator: Adobe Illustrator 16.0.0, SVG Export Plug-In . SVG Version: 6.00 Build 0)  -->
<!DOCTYPE svg PUBLIC "-//W3C//DTD SVG 1.1//EN" "http://www.w3.org/Graphics/SVG/1.1/DTD/svg11.dtd">
<svg version="1.1" id="Layer_1" xmlns="http://www.w3.org/2000/svg" xmlns:xlink="http://www.w3.org/1999/xlink" x="0px" y="0px"
	 width="320px" height="300px" viewBox="0 0 320 300" enable-background="new 0 0 320 300" xml:space="preserve">
<g>
	<g>
		<path fill="#EE4280" d="M299.232,117.833c-0.915-2.792-3.322-4.822-6.223-5.245l-87.133-12.665l-38.972-78.951
			c-2.588-5.266-11.226-5.266-13.815,0l-38.967,78.95l-87.13,12.666c-2.904,0.423-5.311,2.454-6.222,5.245
			c-0.902,2.783-0.151,5.848,1.951,7.893l63.053,61.458l-14.887,86.785c-0.499,2.892,0.691,5.81,3.062,7.532
			c2.386,1.731,5.532,1.956,8.118,0.584L160,241.119l77.928,40.97c1.129,0.592,2.362,0.886,3.589,0.886
			c1.597,0,3.183-0.497,4.527-1.475c2.369-1.724,3.56-4.641,3.063-7.534l-14.886-86.785l63.052-61.458
			C299.381,123.681,300.129,120.62,299.232,117.833z M224.028,180.554c-1.915,1.866-2.792,4.564-2.34,7.205l13.665,79.692
			l-71.561-37.622c-1.193-0.631-2.49-0.94-3.794-0.94c-1.306,0-2.601,0.31-3.793,0.94l-71.561,37.622l13.662-79.692
			c0.457-2.641-0.42-5.339-2.338-7.205L38.071,124.11l80.012-11.63c2.657-0.381,4.948-2.051,6.133-4.454L160,35.526l35.783,72.5
			c1.187,2.403,3.476,4.073,6.138,4.454l80.01,11.63L224.028,180.554z"/>
	</g>
</g>
</svg>
