<?xml version="1.0" encoding="utf-8"?>
<!-- Generator: Adobe Illustrator 16.0.0, SVG Export Plug-In . SVG Version: 6.00 Build 0)  -->
<!DOCTYPE svg PUBLIC "-//W3C//DTD SVG 1.1//EN" "http://www.w3.org/Graphics/SVG/1.1/DTD/svg11.dtd">
<svg version="1.1" id="Layer_1" xmlns="http://www.w3.org/2000/svg" xmlns:xlink="http://www.w3.org/1999/xlink" x="0px" y="0px"
	 width="300px" height="300px" viewBox="0 0 300 300" enable-background="new 0 0 300 300" xml:space="preserve">
<g>
	<g>
		<g transform="translate(0 1)">
			<g>
				<path fill="#FFFFFF" d="M231.13,143.202c3.156-12.119-3.166-24.749-15.285-28.974c-4.741-1.583-10.531-1.583-15.269,0
					c0-9.478-6.325-18.437-15.811-21.599l-1.052-0.529c-5.791-2.101-12.119-1.574-17.908,1.054c-1.059,0.533-2.107,1.06-2.633,1.579
					c-2.109-11.061-12.117-19.489-23.71-19.489c-4.744,0-9.482,1.582-13.167,4.22V25.209c0-13.177-10.541-23.709-23.708-23.709
					S78.883,12.032,78.883,25.209v147.499c-14.228,11.058-15.804,22.649-15.804,38.976v0.528c0,22.125,15.276,38.985,21.074,44.25
					v18.966c0,11.59,9.478,21.072,21.067,21.072h95.356c11.584,0,20.538-8.954,20.538-21.072v-19.484
					c15.275-20.549,15.806-27.918,15.806-64.799C236.921,171.646,231.646,149.521,231.13,143.202z M166.85,157.42c0,0,0,0,0.009,0
					l0,0c0.58-1.381,0.986-2.837,1.24-4.327c0.988-5.149,0.217-10.247-1.977-14.53c-1.847-4.363-4.709-8.313-8.226-11.162
					l5.801-16.852c2.636-6.854,9.483-10.015,16.333-7.906l1.051,0.524c2.365,0.79,4.43,2.166,5.981,4.129
					c2.041,3.156,2.616,7.144,1.396,11.157l-3.688,10.53c-0.16,0.467-0.255,0.933-0.296,1.378l-17.977,51.931
					c-3.223,4.903-9.068,6.967-14.92,5.161l-1.051-0.521c-0.527,0-1.578-0.531-2.105-1.062
					C157.378,174.284,164.22,164.277,166.85,157.42z M175.812,187.453l0.161-0.464c0.753-1.183,1.404-2.443,1.947-3.744
					l18.801-54.067c0.218-0.274,0.443-0.541,0.688-0.791c0.291-0.315,0.604-0.609,0.933-0.901c0.98-0.865,2.097-1.597,3.283-2.199
					c3.158-1.581,6.842-1.581,10.012-0.52c3.156,1.052,5.789,3.682,7.375,6.845c1.578,3.163,1.578,6.853,0.525,10.009
					l-18.962,54.787c-1.061,3.158-3.698,5.796-6.854,7.378c-3.163,1.581-6.85,1.581-10.01,0.521
					c-3.156-1.053-5.791-3.684-7.373-6.843C174.759,194.301,174.759,190.615,175.812,187.453z M129.452,88.942
					c2.633-2.104,5.793-3.681,9.481-3.681c7.378,0,13.694,5.79,13.694,13.162v2.109l-1.574,12.113c0,0.75,0.134,1.487,0.369,2.184
					l-4.588,13.096c-0.055,0.132-0.093,0.254-0.135,0.388c-4.698,0.512-10.451,2.459-17.249,6.983
					c-1.074,0.659-2.317,1.475-3.685,2.397V97.372C125.77,94.214,127.348,91.051,129.452,88.942z M102.585,12.032
					c7.371,0,13.167,5.799,12.647,12.122v72.689c0,0.528,0,0.528,0,1.059v44.769c0,0.828,0.146,1.588,0.418,2.255
					c-7.916,5.832-17.362,13.08-26.232,19.829V25.209C89.419,17.831,95.213,12.032,102.585,12.032z M211.636,251.197
					c-1.06,1.051-1.06,2.109-1.06,3.688v20.542c0,5.798-4.211,10.537-10.004,10.537h-95.354c-5.798,0-10.537-4.739-10.537-10.537
					V254.35c0-1.572-0.524-3.152-2.104-4.211c0,0-18.442-15.803-18.964-37.4c0-16.854,1.05-24.234,13.168-32.663l0.526-0.528l0,0
					c16.855-12.641,38.982-30.017,47.935-35.812c8.435-5.27,15.278-6.86,19.492-3.694c3.16,2.63,4.214,8.428,2.638,13.177l0,0
					c-2.26,5.394-7.983,14.274-15.848,24.312c-13.158,16.571-30.208,33.728-37.362,36.793c-2.631,1.057-3.685,4.21-2.631,6.85
					c0.528,2.103,2.631,3.159,4.744,3.159c0.523,0,1.053,0,2.106-0.527c7.663-3.291,21.021-15.963,33.191-30.041
					c1.822,1.321,3.803,2.324,5.794,3.178l1.05,0.527c2.104,0.518,4.739,1.053,7.375,1.053c3.188,0,6.311-0.721,9.197-2.011
					c0.393,1.938,1.021,3.839,1.866,5.694c3.159,5.795,7.903,10.007,13.696,12.117c2.633,0.525,5.269,1.055,7.902,1.055
					c3.688,0,7.366-1.055,10.008-2.102c5.791-3.172,10.004-7.904,12.111-13.709l12.832-37.061
					c1.549,8.553,2.967,19.039,2.967,28.637C226.378,228.021,225.852,232.229,211.636,251.197z"/>
			</g>
		</g>
	</g>
</g>
</svg>
