<?xml version="1.0" encoding="utf-8"?>
<!-- Generator: Adobe Illustrator 16.0.0, SVG Export Plug-In . SVG Version: 6.00 Build 0)  -->
<!DOCTYPE svg PUBLIC "-//W3C//DTD SVG 1.1//EN" "http://www.w3.org/Graphics/SVG/1.1/DTD/svg11.dtd">
<svg version="1.1" id="Layer_1" xmlns="http://www.w3.org/2000/svg" xmlns:xlink="http://www.w3.org/1999/xlink" x="0px" y="0px"
	 width="300px" height="300px" viewBox="0 0 300 300" enable-background="new 0 0 300 300" xml:space="preserve">
<g>
	<g>
		<g transform="translate(0 1)">
			<g>
				<path fill="#FFFFFF" d="M197.619,145.827c1.727-6.631-1.733-13.542-8.364-15.854c-2.595-0.866-5.763-0.866-8.355,0
					c0-5.186-3.46-10.088-8.651-11.818l-0.575-0.29c-3.169-1.149-6.632-0.861-9.8,0.577c-0.579,0.292-1.153,0.58-1.44,0.864
					c-1.155-6.052-6.631-10.664-12.974-10.664c-2.596,0-5.189,0.866-7.205,2.309V81.263c0-7.21-5.768-12.973-12.973-12.973
					s-12.971,5.763-12.971,12.973v80.71c-7.785,6.05-8.648,12.393-8.648,21.327v0.289c0,12.106,8.359,21.332,11.532,24.213v10.377
					c0,6.343,5.186,11.531,11.528,11.531h52.177c6.338,0,11.239-4.899,11.239-11.531v-10.662
					c8.358-11.244,8.648-15.276,8.648-35.456C200.787,161.393,197.901,149.285,197.619,145.827z M162.445,153.608c0,0,0,0,0.005,0
					l0,0c0.318-0.757,0.54-1.554,0.679-2.369c0.541-2.817,0.118-5.606-1.081-7.95c-1.011-2.387-2.578-4.549-4.501-6.108l3.173-9.221
					c1.443-3.75,5.19-5.48,8.938-4.326l0.575,0.287c1.294,0.432,2.423,1.185,3.273,2.259c1.117,1.727,1.431,3.909,0.764,6.105
					l-2.019,5.762c-0.088,0.256-0.14,0.51-0.162,0.754l-9.836,28.416c-1.764,2.684-4.963,3.812-8.164,2.824l-0.576-0.286
					c-0.288,0-0.862-0.29-1.152-0.581C157.262,162.835,161.007,157.359,162.445,153.608z M167.35,170.041l0.087-0.254
					c0.413-0.647,0.769-1.337,1.067-2.049l10.287-29.584c0.119-0.15,0.242-0.296,0.377-0.433c0.159-0.172,0.331-0.333,0.51-0.493
					c0.537-0.473,1.147-0.874,1.796-1.203c1.729-0.865,3.745-0.865,5.479-0.285c1.727,0.576,3.168,2.015,4.035,3.746
					c0.864,1.731,0.864,3.75,0.287,5.477l-10.375,29.979c-0.58,1.728-2.023,3.171-3.749,4.037c-1.732,0.865-3.748,0.865-5.478,0.285
					c-1.728-0.576-3.169-2.016-4.034-3.744C166.774,173.788,166.774,171.771,167.35,170.041z M141.982,116.137
					c1.441-1.151,3.17-2.014,5.188-2.014c4.037,0,7.493,3.168,7.493,7.202v1.154l-0.861,6.628c0,0.41,0.073,0.814,0.202,1.195
					l-2.51,7.166c-0.03,0.072-0.051,0.139-0.074,0.212c-2.571,0.28-5.719,1.346-9.438,3.821c-0.588,0.361-1.268,0.807-2.016,1.312
					V120.75C139.967,119.022,140.83,117.291,141.982,116.137z M127.281,74.053c4.033,0,7.205,3.173,6.92,6.633v39.775
					c0,0.289,0,0.289,0,0.579v24.497c0,0.453,0.08,0.869,0.229,1.234c-4.331,3.191-9.5,7.157-14.354,10.85V81.263
					C120.076,77.226,123.247,74.053,127.281,74.053z M186.952,204.921c-0.58,0.575-0.58,1.154-0.58,2.019v11.239
					c0,3.173-2.303,5.766-5.473,5.766h-52.177c-3.172,0-5.766-2.593-5.766-5.766v-11.532c0-0.861-0.287-1.726-1.151-2.305
					c0,0-10.091-8.646-10.377-20.465c0-9.222,0.575-13.261,7.206-17.873l0.288-0.289l0,0c9.223-6.917,21.331-16.425,26.229-19.596
					c4.615-2.883,8.36-3.754,10.666-2.021c1.729,1.439,2.305,4.612,1.443,7.21l0,0c-1.236,2.952-4.37,7.811-8.672,13.303
					c-7.2,9.069-16.53,18.456-20.444,20.133c-1.44,0.578-2.016,2.304-1.44,3.748c0.289,1.151,1.44,1.728,2.596,1.728
					c0.287,0,0.576,0,1.153-0.289c4.193-1.8,11.502-8.734,18.162-16.437c0.997,0.723,2.081,1.272,3.17,1.739l0.574,0.288
					c1.152,0.284,2.594,0.576,4.035,0.576c1.744,0,3.454-0.394,5.034-1.1c0.215,1.059,0.559,2.101,1.021,3.116
					c1.729,3.171,4.324,5.476,7.495,6.63c1.44,0.288,2.882,0.578,4.324,0.578c2.018,0,4.031-0.578,5.476-1.15
					c3.168-1.736,5.474-4.326,6.627-7.501l7.022-20.279c0.847,4.68,1.622,10.418,1.622,15.67
					C195.017,192.24,194.73,194.541,186.952,204.921z"/>
			</g>
		</g>
	</g>
</g>
</svg>
