<?xml version="1.0" encoding="utf-8"?>
<!-- Generator: Adobe Illustrator 16.0.0, SVG Export Plug-In . SVG Version: 6.00 Build 0)  -->
<!DOCTYPE svg PUBLIC "-//W3C//DTD SVG 1.1//EN" "http://www.w3.org/Graphics/SVG/1.1/DTD/svg11.dtd">
<svg version="1.1" id="Layer_1" xmlns="http://www.w3.org/2000/svg" xmlns:xlink="http://www.w3.org/1999/xlink" x="0px" y="0px"
	 width="300px" height="300px" viewBox="0 0 300 300" enable-background="new 0 0 300 300" xml:space="preserve">
<g>
	<path fill="#EE4280" d="M201.114,175.572l-0.752-0.339c-1.802-0.821-3.614-1.594-5.465-2.316c-2.016-0.808-4.061-1.557-6.139-2.257
		c-1.641-0.54-3.294-1.04-4.964-1.53c-2.54-0.739-5.109-1.401-7.752-1.989c-0.901-0.186-1.816-0.367-2.725-0.528l-0.621-0.116
		c-1.562-0.308-3.128-0.576-4.714-0.808l-0.456-0.073c-0.016,0-0.029-0.013-0.046-0.013l-0.457-0.06
		c-1.314-0.197-2.626-0.383-3.991-0.536l-4.643-0.385c-5.707-0.377-11.59-0.365-17.232,0.048l-1.646,0.138l-0.767,0.06l-1.922,0.173
		c-1.764,0.188-3.52,0.431-5.272,0.714l-0.515,0.072c-1.196,0.196-2.396,0.418-3.573,0.639c-1.309,0.235-2.604,0.49-3.895,0.773
		c-2.501,0.562-4.985,1.204-7.391,1.901c-1.915,0.55-3.807,1.156-5.583,1.769l-1.233,0.442c-3.768,1.334-7.515,2.864-11.14,4.548
		l-0.969,0.46l-0.016,0.023c-42.413,20.298-69.76,63.546-69.76,110.472c0,1.079,0.071,2.137,0.138,3.201l0.317,7.446h244.125
		l0.325-7.36c0.076-1.091,0.142-2.172,0.142-3.287C272.523,239.176,244.513,195.545,201.114,175.572z M39.448,285.528
		c0.516-42.135,25.429-80.783,63.396-98.588l1.222-0.48l0.143-0.135c2.975-1.362,6.045-2.6,9.158-3.693l0.986-0.353
		c1.695-0.587,3.383-1.125,5.135-1.622c2.185-0.643,4.41-1.216,6.643-1.716c1.156-0.246,2.31-0.48,3.499-0.704
		c0.945-0.173,1.886-0.349,2.838-0.5l0.466-0.084c1.711-0.27,3.429-0.515,5.141-0.702l3.914-0.339
		c5.122-0.377,10.019-0.432,15.958,0l3.804,0.315c0.944,0.108,1.882,0.237,3.023,0.396l1.371,0.197
		c1.433,0.209,2.862,0.456,4.295,0.726l0.673,0.124c0.808,0.149,1.607,0.308,2.368,0.467c2.357,0.515,4.672,1.125,6.972,1.788
		c1.517,0.444,3.027,0.897,4.5,1.388c1.867,0.623,3.71,1.298,5.536,2.023c1.752,0.686,3.48,1.423,5.192,2.209l0.299,0.139
		c38.832,17.812,64.048,56.591,64.564,99.133H39.448V285.528z M120.418,149.241c0.898,0.377,1.826,0.706,2.753,1.036l1.944,0.706
		c0.748,0.286,1.504,0.569,2.271,0.806c7.131,2.248,14.594,3.402,22.182,3.462l0.603,0.012c2.605,0,5.214-0.137,7.712-0.394
		c0.862-0.084,1.701-0.222,2.543-0.365l1.876-0.281c1.053-0.138,2.103-0.293,3.206-0.508c0.752-0.155,1.484-0.354,2.213-0.55
		l2.047-0.521c1.012-0.246,2.021-0.493,3.021-0.804c0.622-0.196,1.233-0.425,1.841-0.653l1.646-0.594
		c1.172-0.406,2.354-0.823,3.543-1.322c0.459-0.197,0.909-0.411,1.351-0.628l0.533-0.261c1.62-0.727,3.237-1.468,4.84-2.33
		l1.043-0.622c1.792-1.018,3.583-2.07,5.396-3.308c0.938-0.634,1.836-1.347,2.719-2.053l3.065-2.382
		c17.618-14.582,27.744-35.982,27.744-58.178l0.036-0.633c0-42.115-34.266-76.375-76.38-76.375c-40.2,0-73.649,31.433-76.141,71.563
		l-0.065,0.995c-0.098,1.264-0.175,2.524-0.175,3.818C73.773,109.638,92.081,137.257,120.418,149.241z M85.889,75.889l0.074-1.076
		c2.105-33.841,30.303-60.344,64.197-60.344c35.521,0,64.408,28.891,64.443,63.861l-0.038,0.63
		c-0.021,19.16-8.57,37.203-23.497,49.594l-2.844,2.167c-0.636,0.515-1.273,1.029-2.07,1.581c-1.438,0.976-2.958,1.856-4.501,2.729
		l-0.854,0.521c-1.295,0.693-2.652,1.31-4.064,1.937l-1.587,0.766c-0.908,0.379-1.866,0.707-2.813,1.035l-1.975,0.714
		c-0.381,0.143-0.771,0.3-1.148,0.411c-0.736,0.229-1.486,0.402-2.237,0.587l-2.387,0.611c-0.515,0.137-1.023,0.281-1.479,0.378
		c-0.796,0.156-1.61,0.264-2.418,0.376l-2.272,0.342c-0.553,0.095-1.104,0.191-1.719,0.249c-1.992,0.209-3.998,0.324-6.032,0.342
		l-0.562-0.006h-0.013c-6.55-0.005-12.986-0.982-19.137-2.91c-0.532-0.167-1.051-0.376-1.573-0.572l-2.251-0.821
		c-0.699-0.246-1.391-0.483-2.062-0.764c-23.891-10.104-39.331-33.407-39.331-59.348C85.741,77.87,85.82,76.874,85.889,75.889z"/>
</g>
</svg>
