<?xml version="1.0" encoding="utf-8"?>
<!-- Generator: Adobe Illustrator 16.0.0, SVG Export Plug-In . SVG Version: 6.00 Build 0)  -->
<!DOCTYPE svg PUBLIC "-//W3C//DTD SVG 1.1//EN" "http://www.w3.org/Graphics/SVG/1.1/DTD/svg11.dtd">
<svg version="1.1" id="Layer_1" xmlns="http://www.w3.org/2000/svg" xmlns:xlink="http://www.w3.org/1999/xlink" x="0px" y="0px"
	 width="300px" height="300px" viewBox="0 0 300 300" enable-background="new 0 0 300 300" xml:space="preserve">
<g>
	<path fill="#EE4280" d="M180.341,165.179l-0.446-0.201c-1.07-0.487-2.146-0.946-3.244-1.375c-1.197-0.479-2.411-0.924-3.644-1.34
		c-0.974-0.319-1.955-0.617-2.946-0.908c-1.508-0.438-3.033-0.832-4.602-1.18c-0.535-0.11-1.078-0.218-1.617-0.313l-0.37-0.07
		c-0.926-0.182-1.856-0.342-2.797-0.48l-0.271-0.043c-0.01,0-0.018-0.007-0.027-0.007l-0.271-0.035
		c-0.781-0.118-1.559-0.228-2.369-0.319l-2.756-0.228c-3.388-0.224-6.88-0.217-10.229,0.028l-0.977,0.082l-0.455,0.035l-1.141,0.103
		c-1.047,0.111-2.089,0.256-3.129,0.423l-0.306,0.043c-0.71,0.117-1.422,0.248-2.121,0.38c-0.777,0.139-1.546,0.291-2.312,0.458
		c-1.485,0.335-2.959,0.715-4.387,1.13c-1.137,0.326-2.26,0.686-3.314,1.049l-0.732,0.263c-2.237,0.792-4.461,1.7-6.613,2.699
		l-0.575,0.273l-0.01,0.014c-25.175,12.049-41.408,37.72-41.408,65.575c0,0.64,0.042,1.268,0.082,1.9l0.188,4.419h144.909
		l0.194-4.369c0.044-0.647,0.083-1.289,0.083-1.95C222.729,202.934,206.101,177.035,180.341,165.179z M84.378,230.448
		c0.306-25.01,15.094-47.952,37.631-58.52l0.725-0.285l0.085-0.081c1.766-0.808,3.588-1.542,5.436-2.192l0.585-0.209
		c1.006-0.349,2.008-0.668,3.048-0.963c1.297-0.381,2.618-0.721,3.943-1.019c0.686-0.146,1.371-0.284,2.077-0.417
		c0.561-0.103,1.12-0.208,1.685-0.297l0.276-0.05c1.016-0.16,2.036-0.306,3.052-0.417l2.323-0.201c3.04-0.224,5.948-0.256,9.473,0
		l2.258,0.188c0.56,0.064,1.117,0.14,1.795,0.235l0.813,0.117c0.85,0.124,1.699,0.27,2.55,0.43l0.399,0.074
		c0.479,0.089,0.955,0.182,1.405,0.277c1.4,0.306,2.774,0.668,4.139,1.062c0.901,0.263,1.797,0.532,2.671,0.823
		c1.108,0.37,2.202,0.771,3.286,1.201c1.04,0.408,2.066,0.845,3.082,1.312l0.178,0.081c23.05,10.574,38.018,33.593,38.324,58.844
		H84.378V230.448z M132.441,149.55c0.533,0.224,1.084,0.419,1.634,0.615l1.154,0.419c0.444,0.17,0.893,0.338,1.348,0.479
		c4.233,1.333,8.663,2.019,13.167,2.054l0.358,0.007c1.546,0,3.095-0.081,4.578-0.233c0.512-0.05,1.009-0.132,1.509-0.217
		l1.113-0.167c0.625-0.082,1.249-0.174,1.904-0.302c0.447-0.092,0.881-0.21,1.314-0.326l1.214-0.309
		c0.601-0.146,1.2-0.292,1.794-0.477c0.369-0.117,0.731-0.252,1.092-0.388l0.977-0.352c0.696-0.241,1.398-0.489,2.103-0.785
		c0.272-0.117,0.54-0.244,0.802-0.373l0.316-0.155c0.962-0.431,1.922-0.871,2.874-1.383l0.618-0.369
		c1.064-0.604,2.127-1.229,3.203-1.964c0.558-0.376,1.091-0.799,1.615-1.218l1.819-1.414c10.458-8.656,16.469-21.359,16.469-34.534
		l0.021-0.376c0-24.999-20.34-45.335-45.338-45.335c-23.862,0-43.717,18.658-45.196,42.479l-0.039,0.59
		c-0.058,0.75-0.104,1.498-0.104,2.266C104.753,126.042,115.62,142.436,132.441,149.55z M111.945,106.009l0.044-0.639
		c1.25-20.088,17.987-35.819,38.106-35.819c21.085,0,38.232,17.149,38.252,37.907l-0.022,0.374
		c-0.013,11.373-5.086,22.083-13.947,29.438l-1.688,1.286c-0.377,0.306-0.757,0.611-1.229,0.938
		c-0.853,0.579-1.756,1.102-2.672,1.62l-0.507,0.31c-0.768,0.411-1.574,0.777-2.412,1.149l-0.942,0.455
		c-0.54,0.225-1.107,0.419-1.67,0.614l-1.172,0.424c-0.227,0.085-0.458,0.178-0.682,0.244c-0.437,0.136-0.883,0.239-1.328,0.348
		l-1.417,0.363c-0.306,0.081-0.607,0.167-0.878,0.224c-0.472,0.093-0.956,0.157-1.435,0.224l-1.349,0.203
		c-0.328,0.056-0.655,0.113-1.021,0.148c-1.182,0.124-2.373,0.192-3.58,0.203l-0.334-0.004h-0.008
		c-3.888-0.003-7.708-0.583-11.359-1.727c-0.316-0.099-0.624-0.223-0.934-0.34l-1.336-0.487c-0.415-0.146-0.826-0.287-1.224-0.454
		c-14.181-5.998-23.346-19.83-23.346-35.228C111.857,107.185,111.904,106.594,111.945,106.009z"/>
</g>
</svg>
