<?xml version="1.0" encoding="utf-8"?>
<!-- Generator: Adobe Illustrator 16.0.0, SVG Export Plug-In . SVG Version: 6.00 Build 0)  -->
<!DOCTYPE svg PUBLIC "-//W3C//DTD SVG 1.1//EN" "http://www.w3.org/Graphics/SVG/1.1/DTD/svg11.dtd">
<svg version="1.1" id="Layer_1" xmlns="http://www.w3.org/2000/svg" xmlns:xlink="http://www.w3.org/1999/xlink" x="0px" y="0px"
	 width="320px" height="300px" viewBox="0 0 320 300" enable-background="new 0 0 320 300" xml:space="preserve">
<g>
	<g>
		<path fill="#FFFFFF" d="M314.437,114.32c-1.014-3.097-3.684-5.349-6.901-5.818l-96.647-14.048L167.66,6.881
			c-2.871-5.841-12.452-5.841-15.324,0l-43.223,87.572l-96.646,14.049c-3.221,0.469-5.891,2.722-6.902,5.818
			c-1,3.087-0.167,6.486,2.164,8.754l69.939,68.169l-16.513,96.264c-0.553,3.207,0.767,6.443,3.396,8.354
			c2.646,1.92,6.136,2.17,9.004,0.647L160,251.071l86.437,45.443c1.252,0.656,2.621,0.982,3.982,0.982
			c1.77,0,3.53-0.553,5.023-1.637c2.627-1.911,3.947-5.147,3.396-8.355l-16.511-96.264l69.938-68.17
			C314.603,120.807,315.433,117.411,314.437,114.32z M231.022,183.89c-2.127,2.071-3.1,5.063-2.598,7.992l15.157,88.395
			l-79.378-41.729c-1.321-0.699-2.76-1.04-4.207-1.04c-1.448,0-2.887,0.341-4.208,1.04l-79.375,41.729l15.156-88.395
			c0.505-2.929-0.467-5.922-2.593-7.992l-64.223-62.606l88.748-12.9c2.947-0.422,5.489-2.275,6.803-4.94L160,23.025l39.691,80.418
			c1.315,2.666,3.854,4.518,6.808,4.94l88.747,12.9L231.022,183.89z"/>
	</g>
</g>
</svg>
