<?xml version="1.0" encoding="iso-8859-1"?>
<!-- Generator: Adobe Illustrator 19.0.0, SVG Export Plug-In . SVG Version: 6.00 Build 0)  -->
<svg version="1.1" id="Capa_1" xmlns="http://www.w3.org/2000/svg" xmlns:xlink="http://www.w3.org/1999/xlink" x="0px" y="0px"
	 viewBox="0 0 480 480" style="enable-background:new 0 0 480 480;" xml:space="preserve">
<rect x="56" y="88" style="fill:#FAC05E;" width="368" height="32"/>
<g>
	<path style="fill:#50D4E3;" d="M448,200L448,200c-13.256,0-24-10.744-24-24V32c0-13.256,10.744-24,24-24l0,0
		c13.256,0,24,10.744,24,24v144C472,189.256,461.256,200,448,200z"/>
	<path style="fill:#50D4E3;" d="M32,8L32,8c13.256,0,24,10.744,24,24v144c0,13.256-10.744,24-24,24l0,0c-13.256,0-24-10.744-24-24
		V32C8,18.744,18.744,8,32,8z"/>
</g>
<path style="fill:#EE6352;" d="M288,256c-19.144,0-36.272,8.448-48,21.768C228.272,264.448,211.144,256,192,256
	c-35.344,0-64,28.656-64,64s28.656,64,64,64c26.528,0,48,21.472,48,48c0-26.528,21.472-48,48-48c35.344,0,64-28.656,64-64
	S323.344,256,288,256z"/>
<g>
	<path style="fill:#0F272A;" d="M448,0c-17.648,0-32,14.352-32,32v48H64V32C64,14.352,49.648,0,32,0S0,14.352,0,32v144
		c0,17.648,14.352,32,32,32s32-14.352,32-32v-48h24v168c0,17.648,14.352,32,32,32h0.472c3.328,29.952,25.112,54.344,53.688,61.672
		L153.888,464H120v16h40c3.608,0,6.768-2.416,7.72-5.896l22.416-82.2C190.76,391.92,191.368,392,192,392c22.056,0,40,17.944,40,40
		c0,4.424,3.584,8,8,8c4.416,0,8-3.576,8-8c0-22.056,17.944-40,40-40c0.632,0,1.24-0.08,1.864-0.096l22.416,82.2
		c0.952,3.48,4.112,5.896,7.72,5.896h40v-16h-33.888l-20.272-74.328c28.576-7.328,50.36-31.72,53.688-61.672H360
		c17.648,0,32-14.352,32-32V128h24v48c0,17.648,14.352,32,32,32s32-14.352,32-32V32C480,14.352,465.648,0,448,0z M48,176
		c0,8.824-7.176,16-16,16s-16-7.176-16-16V32c0-8.824,7.176-16,16-16s16,7.176,16,16v56v32V176z M288,376
		c-20.344,0-38.192,10.904-48,27.176C230.192,386.904,212.344,376,192,376c-30.88,0-56-25.128-56-56s25.12-56,56-56
		c16.032,0,31.336,6.944,42,19.056c3.04,3.44,8.968,3.44,12.008,0C256.664,270.944,271.968,264,288,264c30.88,0,56,25.128,56,56
		S318.88,376,288,376z M376,296c0,8.824-7.176,16-16,16h-0.472c-4-35.944-34.536-64-71.528-64c-17.776,0-34.848,6.624-48,18.424
		C226.848,254.624,209.776,248,192,248c-36.992,0-67.536,28.056-71.528,64H120c-8.824,0-16-7.176-16-16V128h272V296z M64,112V96h352
		v16H64z M464,176c0,8.824-7.176,16-16,16s-16-7.176-16-16v-56V88V32c0-8.824,7.176-16,16-16s16,7.176,16,16V176z"/>
	<path style="fill:#0F272A;" d="M284,296c-15.44,0-28,12.56-28,28v4h16v-4c0-6.616,5.384-12,12-12s12,5.384,12,12v4h16v-4
		C312,308.56,299.44,296,284,296z"/>
	<path style="fill:#0F272A;" d="M196,296c-15.44,0-28,12.56-28,28v4h16v-4c0-6.616,5.384-12,12-12s12,5.384,12,12v4h16v-4
		C224,308.56,211.44,296,196,296z"/>
	<rect x="232" y="184" style="fill:#0F272A;" width="16" height="32"/>
	
		<rect x="259.027" y="204.023" transform="matrix(-0.7071 0.7071 -0.7071 -0.7071 621.0822 166.7849)" style="fill:#0F272A;" width="33.944" height="16"/>
	
		<rect x="195.984" y="195.032" transform="matrix(-0.7071 0.7071 -0.7071 -0.7071 498.131 217.6746)" style="fill:#0F272A;" width="16" height="33.944"/>
</g>
<g>
</g>
<g>
</g>
<g>
</g>
<g>
</g>
<g>
</g>
<g>
</g>
<g>
</g>
<g>
</g>
<g>
</g>
<g>
</g>
<g>
</g>
<g>
</g>
<g>
</g>
<g>
</g>
<g>
</g>
</svg>
