<?xml version="1.0" encoding="iso-8859-1"?>
<!-- Generator: Adobe Illustrator 19.0.0, SVG Export Plug-In . SVG Version: 6.00 Build 0)  -->
<svg version="1.1" id="Capa_1" xmlns="http://www.w3.org/2000/svg" xmlns:xlink="http://www.w3.org/1999/xlink" x="0px" y="0px"
	 viewBox="0 0 512 512" style="enable-background:new 0 0 512 512;" xml:space="preserve">
<path style="fill:#E2E3E4;" d="M342.649,77.412c16.314-34.574,16.841-68.593,1.176-75.984
	c-15.664-7.392-41.588,14.644-57.902,49.218c-7.065,14.97-9.834,34.62-10.705,52.092c-15.108-7.89-32.287-12.357-50.511-12.357
	s-35.404,4.467-50.511,12.357c-0.871-17.471-3.641-37.122-10.705-52.092c-16.314-34.574-42.238-56.609-57.902-49.218
	C89.923,8.82,90.449,42.84,106.763,77.412c8.126,17.223,24.647,33.997,39.183,46.498c-18.898,19.644-30.52,46.338-30.52,75.749
	c0,21.855,6.416,42.212,17.466,59.29l184.074-0.706c11.783-17.441,17.019-35.951,17.019-58.584c0-29.411-11.623-56.105-30.52-75.749
	C318.001,111.41,334.521,94.635,342.649,77.412z"/>
<g>
	<path style="fill:#727171;" d="M146.517,66.465c4.818,10.21,2.873,27.793,2.873,27.793s-14.808-9.679-19.626-19.888
		c-4.818-10.21-4.973-20.257-0.347-22.439S141.698,56.254,146.517,66.465z"/>
	<path style="fill:#727171;" d="M304.207,66.465c-4.818,10.21-2.873,27.793-2.873,27.793s14.808-9.679,19.626-19.888
		s4.973-20.257,0.347-22.439C316.682,49.747,309.025,56.254,304.207,66.465z"/>
</g>
<g style="opacity:0.2;">
	<path d="M342.649,77.412c16.314-34.574,16.841-68.593,1.176-75.984c-4.897-2.311-10.797-1.745-17.093,1.18
		c13.562,9.304,12.39,41.792-3.188,74.805c-8.126,17.223-24.647,33.997-39.183,46.498c18.898,19.644,30.52,46.338,30.52,75.749
		c0,22.633-5.236,41.142-17.019,58.584l-165.015,0.633c0.016,0.024,0.03,0.049,0.046,0.073l184.074-0.706
		c11.783-17.441,17.019-35.951,17.019-58.584c0-29.411-11.623-56.105-30.52-75.749C318.001,111.41,334.521,94.635,342.649,77.412z"
		/>
</g>
<g>
	<path style="fill:#727171;" d="M200.996,197.755c-4.308,0-7.8-3.492-7.8-7.8c0-8.787-3.907-13.615-5.202-13.615
		s-5.202,4.829-5.202,13.615c0,4.308-3.492,7.8-7.8,7.8c-4.308,0-7.8-3.492-7.8-7.8c0-16.382,9.137-29.215,20.801-29.215
		s20.801,12.832,20.801,29.215C208.796,194.262,205.304,197.755,200.996,197.755z"/>
	<path style="fill:#727171;" d="M274.42,197.755c-4.308,0-7.8-3.492-7.8-7.8c0-8.787-3.907-13.615-5.202-13.615
		c-1.295,0-5.202,4.829-5.202,13.615c0,4.308-3.492,7.8-7.8,7.8s-7.8-3.492-7.8-7.8c0-16.382,9.137-29.215,20.801-29.215
		c11.664,0,20.801,12.832,20.801,29.215C282.22,194.262,278.728,197.755,274.42,197.755z"/>
	<path style="fill:#727171;" d="M240.003,223.902c0,8.448-15.297,15.297-15.297,15.297s-15.297-6.848-15.297-15.297
		c0-8.448,6.848-15.297,15.297-15.297C233.154,208.605,240.003,215.454,240.003,223.902z"/>
</g>
<path style="fill:#332E2F;" d="M316.564,512H132.848c-24.246,0-43.901-19.655-43.901-43.901V282.373h271.518v185.726
	C360.465,492.345,340.81,512,316.564,512z"/>
<rect x="88.949" y="282.373" style="fill:#F23366;" width="271.515" height="81.138"/>
<path style="fill:#727171;" d="M464.797,146.476c-0.827-5.103-5.634-8.568-10.737-7.742l-22.817,3.698
	c-5.102,0.827-8.568,5.634-7.742,10.737l7.374,45.294l41.277-6.802L464.797,146.476z"/>
<g>
	<path style="fill:#FFDB4C;" d="M436.229,19.301l7.685,14.097c4.235,7.766,10.617,14.15,18.384,18.384l14.097,7.685l-14.097,7.685
		c-7.766,4.235-14.15,10.617-18.384,18.384l-7.685,14.097l-7.685-14.097c-4.235-7.766-10.617-14.15-18.384-18.384l-14.097-7.685
		l14.097-7.685c7.766-4.235,14.15-10.617,18.384-18.384L436.229,19.301z"/>
	<path style="fill:#FFDB4C;" d="M42.739,143.571l7.685,14.097c4.235,7.766,10.617,14.15,18.384,18.384l14.097,7.685l-14.097,7.685
		c-7.766,4.235-14.15,10.617-18.384,18.384l-7.685,14.097l-7.685-14.097c-4.235-7.766-10.617-14.15-18.384-18.384l-14.097-7.685
		l14.097-7.685c7.766-4.235,14.15-10.617,18.384-18.384L42.739,143.571z"/>
</g>
<path style="fill:#332E2F;" d="M509.305,420.883L471.717,188.96l-41.295,6.693l37.588,231.924c0.827,5.103,5.634,8.568,10.737,7.742
	l22.817-3.698C506.665,430.793,510.132,425.986,509.305,420.883z"/>
<path style="opacity:0.2;enable-background:new    ;" d="M319.907,282.373V427.54c0,24.246-19.655,43.901-43.901,43.901H92.289
	c-1.082,0-2.151-0.053-3.212-0.13C90.724,494.055,109.684,512,132.848,512h183.716c24.246,0,43.901-19.655,43.901-43.901V282.373
	H319.907z"/>
<path style="fill:#332E2F;" d="M385.664,306.501H63.748c-5.744,0-10.4-4.656-10.4-10.4v-27.458c0-5.744,4.656-10.4,10.4-10.4
	h321.916c5.744,0,10.4,4.656,10.4,10.4v27.458C396.064,301.845,391.408,306.501,385.664,306.501z"/>
<g>
</g>
<g>
</g>
<g>
</g>
<g>
</g>
<g>
</g>
<g>
</g>
<g>
</g>
<g>
</g>
<g>
</g>
<g>
</g>
<g>
</g>
<g>
</g>
<g>
</g>
<g>
</g>
<g>
</g>
</svg>
